<?xml version="1.0" encoding="utf-8" standalone="no"?>
<!DOCTYPE svg PUBLIC "-//W3C//DTD SVG 1.1//EN"
  "http://www.w3.org/Graphics/SVG/1.1/DTD/svg11.dtd">
<svg xmlns:xlink="http://www.w3.org/1999/xlink" width="190.8pt" height="123.84pt" viewBox="0 0 190.8 123.84" xmlns="http://www.w3.org/2000/svg" version="1.1">
 <metadata>
  <rdf:RDF xmlns:dc="http://purl.org/dc/elements/1.1/" xmlns:cc="http://creativecommons.org/ns#" xmlns:rdf="http://www.w3.org/1999/02/22-rdf-syntax-ns#">
   <cc:Work>
    <dc:type rdf:resource="http://purl.org/dc/dcmitype/StillImage"/>
    <dc:date>2026-07-06T14:52:01.830520</dc:date>
    <dc:format>image/svg+xml</dc:format>
    <dc:creator>
     <cc:Agent>
      <dc:title>Matplotlib v3.10.8, https://matplotlib.org/</dc:title>
     </cc:Agent>
    </dc:creator>
   </cc:Work>
  </rdf:RDF>
 </metadata>
 <defs>
  <style type="text/css">*{stroke-linejoin: round; stroke-linecap: butt}</style>
 </defs>
 <g id="figure_1">
  <g id="patch_1">
   <path d="M 0 123.84 
L 190.8 123.84 
L 190.8 0 
L 0 0 
z
" style="fill: #ffffff"/>
  </g>
  <g id="axes_1">
   <g id="patch_2">
    <path d="M 45.792 74.304 
L 175.536 74.304 
L 175.536 7.4304 
L 45.792 7.4304 
z
" style="fill: #ffffff"/>
   </g>
   <g id="matplotlib.axis_1">
    <g id="xtick_1">
     <g id="line2d_1">
      <path d="M 98.168927 74.304 
L 98.168927 7.4304 
" clip-path="url(#p28e81c0916)" style="fill: none; stroke-dasharray: 0.8,1.32; stroke-dashoffset: 0; stroke: #b0b0b0; stroke-opacity: 0.18; stroke-width: 0.8"/>
     </g>
     <g id="line2d_2">
      <defs>
       <path id="m8de6f8cf12" d="M 0 0 
L 0 3.5 
" style="stroke: #000000; stroke-width: 0.8"/>
      </defs>
      <g>
       <use xlink:href="#m8de6f8cf12" x="98.168927" y="74.304" style="stroke: #000000; stroke-width: 0.8"/>
      </g>
     </g>
     <g id="text_1">
      <!-- 1s -->
      <g transform="translate(92.38299 88.902438) scale(0.1 -0.1)">
       <defs>
        <path id="DejaVuSans-31" d="M 794 531 
L 1825 531 
L 1825 4091 
L 703 3866 
L 703 4441 
L 1819 4666 
L 2450 4666 
L 2450 531 
L 3481 531 
L 3481 0 
L 794 0 
L 794 531 
z
" transform="scale(0.015625)"/>
        <path id="DejaVuSans-73" d="M 2834 3397 
L 2834 2853 
Q 2591 2978 2328 3040 
Q 2066 3103 1784 3103 
Q 1356 3103 1142 2972 
Q 928 2841 928 2578 
Q 928 2378 1081 2264 
Q 1234 2150 1697 2047 
L 1894 2003 
Q 2506 1872 2764 1633 
Q 3022 1394 3022 966 
Q 3022 478 2636 193 
Q 2250 -91 1575 -91 
Q 1294 -91 989 -36 
Q 684 19 347 128 
L 347 722 
Q 666 556 975 473 
Q 1284 391 1588 391 
Q 1994 391 2212 530 
Q 2431 669 2431 922 
Q 2431 1156 2273 1281 
Q 2116 1406 1581 1522 
L 1381 1569 
Q 847 1681 609 1914 
Q 372 2147 372 2553 
Q 372 3047 722 3315 
Q 1072 3584 1716 3584 
Q 2034 3584 2315 3537 
Q 2597 3491 2834 3397 
z
" transform="scale(0.015625)"/>
       </defs>
       <use xlink:href="#DejaVuSans-31"/>
       <use xlink:href="#DejaVuSans-73" transform="translate(63.623047 0)"/>
      </g>
     </g>
    </g>
    <g id="xtick_2">
     <g id="line2d_3">
      <path d="M 144.735977 74.304 
L 144.735977 7.4304 
" clip-path="url(#p28e81c0916)" style="fill: none; stroke-dasharray: 0.8,1.32; stroke-dashoffset: 0; stroke: #b0b0b0; stroke-opacity: 0.18; stroke-width: 0.8"/>
     </g>
     <g id="line2d_4">
      <g>
       <use xlink:href="#m8de6f8cf12" x="144.735977" y="74.304" style="stroke: #000000; stroke-width: 0.8"/>
      </g>
     </g>
     <g id="text_2">
      <!-- 1m -->
      <g transform="translate(136.684414 88.902438) scale(0.1 -0.1)">
       <defs>
        <path id="DejaVuSans-6d" d="M 3328 2828 
Q 3544 3216 3844 3400 
Q 4144 3584 4550 3584 
Q 5097 3584 5394 3201 
Q 5691 2819 5691 2113 
L 5691 0 
L 5113 0 
L 5113 2094 
Q 5113 2597 4934 2840 
Q 4756 3084 4391 3084 
Q 3944 3084 3684 2787 
Q 3425 2491 3425 1978 
L 3425 0 
L 2847 0 
L 2847 2094 
Q 2847 2600 2669 2842 
Q 2491 3084 2119 3084 
Q 1678 3084 1418 2786 
Q 1159 2488 1159 1978 
L 1159 0 
L 581 0 
L 581 3500 
L 1159 3500 
L 1159 2956 
Q 1356 3278 1631 3431 
Q 1906 3584 2284 3584 
Q 2666 3584 2933 3390 
Q 3200 3197 3328 2828 
z
" transform="scale(0.015625)"/>
       </defs>
       <use xlink:href="#DejaVuSans-31"/>
       <use xlink:href="#DejaVuSans-6d" transform="translate(63.623047 0)"/>
      </g>
     </g>
    </g>
    <g id="xtick_3">
     <g id="line2d_5">
      <path d="M 175.536 74.304 
L 175.536 7.4304 
" clip-path="url(#p28e81c0916)" style="fill: none; stroke-dasharray: 0.8,1.32; stroke-dashoffset: 0; stroke: #b0b0b0; stroke-opacity: 0.18; stroke-width: 0.8"/>
     </g>
     <g id="line2d_6">
      <g>
       <use xlink:href="#m8de6f8cf12" x="175.536" y="74.304" style="stroke: #000000; stroke-width: 0.8"/>
      </g>
     </g>
     <g id="text_3">
      <!-- 15m -->
      <g transform="translate(164.303188 88.902438) scale(0.1 -0.1)">
       <defs>
        <path id="DejaVuSans-35" d="M 691 4666 
L 3169 4666 
L 3169 4134 
L 1269 4134 
L 1269 2991 
Q 1406 3038 1543 3061 
Q 1681 3084 1819 3084 
Q 2600 3084 3056 2656 
Q 3513 2228 3513 1497 
Q 3513 744 3044 326 
Q 2575 -91 1722 -91 
Q 1428 -91 1123 -41 
Q 819 9 494 109 
L 494 744 
Q 775 591 1075 516 
Q 1375 441 1709 441 
Q 2250 441 2565 725 
Q 2881 1009 2881 1497 
Q 2881 1984 2565 2268 
Q 2250 2553 1709 2553 
Q 1456 2553 1204 2497 
Q 953 2441 691 2322 
L 691 4666 
z
" transform="scale(0.015625)"/>
       </defs>
       <use xlink:href="#DejaVuSans-31"/>
       <use xlink:href="#DejaVuSans-35" transform="translate(63.623047 0)"/>
       <use xlink:href="#DejaVuSans-6d" transform="translate(127.246094 0)"/>
      </g>
     </g>
    </g>
    <g id="xtick_4">
     <g id="line2d_7">
      <defs>
       <path id="m5e92c4ecce" d="M 0 0 
L 0 2 
" style="stroke: #000000; stroke-width: 0.6"/>
      </defs>
      <g>
       <use xlink:href="#m5e92c4ecce" x="53.675513" y="74.304" style="stroke: #000000; stroke-width: 0.6"/>
      </g>
     </g>
    </g>
    <g id="xtick_5">
     <g id="line2d_8">
      <g>
       <use xlink:href="#m5e92c4ecce" x="58.287073" y="74.304" style="stroke: #000000; stroke-width: 0.6"/>
      </g>
     </g>
    </g>
    <g id="xtick_6">
     <g id="line2d_9">
      <g>
       <use xlink:href="#m5e92c4ecce" x="61.559026" y="74.304" style="stroke: #000000; stroke-width: 0.6"/>
      </g>
     </g>
    </g>
    <g id="xtick_7">
     <g id="line2d_10">
      <g>
       <use xlink:href="#m5e92c4ecce" x="64.096951" y="74.304" style="stroke: #000000; stroke-width: 0.6"/>
      </g>
     </g>
    </g>
    <g id="xtick_8">
     <g id="line2d_11">
      <g>
       <use xlink:href="#m5e92c4ecce" x="66.170586" y="74.304" style="stroke: #000000; stroke-width: 0.6"/>
      </g>
     </g>
    </g>
    <g id="xtick_9">
     <g id="line2d_12">
      <g>
       <use xlink:href="#m5e92c4ecce" x="67.923819" y="74.304" style="stroke: #000000; stroke-width: 0.6"/>
      </g>
     </g>
    </g>
    <g id="xtick_10">
     <g id="line2d_13">
      <g>
       <use xlink:href="#m5e92c4ecce" x="69.442539" y="74.304" style="stroke: #000000; stroke-width: 0.6"/>
      </g>
     </g>
    </g>
    <g id="xtick_11">
     <g id="line2d_14">
      <g>
       <use xlink:href="#m5e92c4ecce" x="70.782145" y="74.304" style="stroke: #000000; stroke-width: 0.6"/>
      </g>
     </g>
    </g>
    <g id="xtick_12">
     <g id="line2d_15">
      <g>
       <use xlink:href="#m5e92c4ecce" x="79.863977" y="74.304" style="stroke: #000000; stroke-width: 0.6"/>
      </g>
     </g>
    </g>
    <g id="xtick_13">
     <g id="line2d_16">
      <g>
       <use xlink:href="#m5e92c4ecce" x="84.475536" y="74.304" style="stroke: #000000; stroke-width: 0.6"/>
      </g>
     </g>
    </g>
    <g id="xtick_14">
     <g id="line2d_17">
      <g>
       <use xlink:href="#m5e92c4ecce" x="87.74749" y="74.304" style="stroke: #000000; stroke-width: 0.6"/>
      </g>
     </g>
    </g>
    <g id="xtick_15">
     <g id="line2d_18">
      <g>
       <use xlink:href="#m5e92c4ecce" x="90.285414" y="74.304" style="stroke: #000000; stroke-width: 0.6"/>
      </g>
     </g>
    </g>
    <g id="xtick_16">
     <g id="line2d_19">
      <g>
       <use xlink:href="#m5e92c4ecce" x="92.359049" y="74.304" style="stroke: #000000; stroke-width: 0.6"/>
      </g>
     </g>
    </g>
    <g id="xtick_17">
     <g id="line2d_20">
      <g>
       <use xlink:href="#m5e92c4ecce" x="94.112283" y="74.304" style="stroke: #000000; stroke-width: 0.6"/>
      </g>
     </g>
    </g>
    <g id="xtick_18">
     <g id="line2d_21">
      <g>
       <use xlink:href="#m5e92c4ecce" x="95.631003" y="74.304" style="stroke: #000000; stroke-width: 0.6"/>
      </g>
     </g>
    </g>
    <g id="xtick_19">
     <g id="line2d_22">
      <g>
       <use xlink:href="#m5e92c4ecce" x="96.970609" y="74.304" style="stroke: #000000; stroke-width: 0.6"/>
      </g>
     </g>
    </g>
    <g id="xtick_20">
     <g id="line2d_23">
      <g>
       <use xlink:href="#m5e92c4ecce" x="106.05244" y="74.304" style="stroke: #000000; stroke-width: 0.6"/>
      </g>
     </g>
    </g>
    <g id="xtick_21">
     <g id="line2d_24">
      <g>
       <use xlink:href="#m5e92c4ecce" x="110.664" y="74.304" style="stroke: #000000; stroke-width: 0.6"/>
      </g>
     </g>
    </g>
    <g id="xtick_22">
     <g id="line2d_25">
      <g>
       <use xlink:href="#m5e92c4ecce" x="113.935954" y="74.304" style="stroke: #000000; stroke-width: 0.6"/>
      </g>
     </g>
    </g>
    <g id="xtick_23">
     <g id="line2d_26">
      <g>
       <use xlink:href="#m5e92c4ecce" x="116.473878" y="74.304" style="stroke: #000000; stroke-width: 0.6"/>
      </g>
     </g>
    </g>
    <g id="xtick_24">
     <g id="line2d_27">
      <g>
       <use xlink:href="#m5e92c4ecce" x="118.547513" y="74.304" style="stroke: #000000; stroke-width: 0.6"/>
      </g>
     </g>
    </g>
    <g id="xtick_25">
     <g id="line2d_28">
      <g>
       <use xlink:href="#m5e92c4ecce" x="120.300747" y="74.304" style="stroke: #000000; stroke-width: 0.6"/>
      </g>
     </g>
    </g>
    <g id="xtick_26">
     <g id="line2d_29">
      <g>
       <use xlink:href="#m5e92c4ecce" x="121.819467" y="74.304" style="stroke: #000000; stroke-width: 0.6"/>
      </g>
     </g>
    </g>
    <g id="xtick_27">
     <g id="line2d_30">
      <g>
       <use xlink:href="#m5e92c4ecce" x="123.159073" y="74.304" style="stroke: #000000; stroke-width: 0.6"/>
      </g>
     </g>
    </g>
    <g id="xtick_28">
     <g id="line2d_31">
      <g>
       <use xlink:href="#m5e92c4ecce" x="132.240904" y="74.304" style="stroke: #000000; stroke-width: 0.6"/>
      </g>
     </g>
    </g>
    <g id="xtick_29">
     <g id="line2d_32">
      <g>
       <use xlink:href="#m5e92c4ecce" x="136.852464" y="74.304" style="stroke: #000000; stroke-width: 0.6"/>
      </g>
     </g>
    </g>
    <g id="xtick_30">
     <g id="line2d_33">
      <g>
       <use xlink:href="#m5e92c4ecce" x="140.124417" y="74.304" style="stroke: #000000; stroke-width: 0.6"/>
      </g>
     </g>
    </g>
    <g id="xtick_31">
     <g id="line2d_34">
      <g>
       <use xlink:href="#m5e92c4ecce" x="142.662342" y="74.304" style="stroke: #000000; stroke-width: 0.6"/>
      </g>
     </g>
    </g>
    <g id="xtick_32">
     <g id="line2d_35">
      <g>
       <use xlink:href="#m5e92c4ecce" x="146.48921" y="74.304" style="stroke: #000000; stroke-width: 0.6"/>
      </g>
     </g>
    </g>
    <g id="xtick_33">
     <g id="line2d_36">
      <g>
       <use xlink:href="#m5e92c4ecce" x="148.00793" y="74.304" style="stroke: #000000; stroke-width: 0.6"/>
      </g>
     </g>
    </g>
    <g id="xtick_34">
     <g id="line2d_37">
      <g>
       <use xlink:href="#m5e92c4ecce" x="149.347536" y="74.304" style="stroke: #000000; stroke-width: 0.6"/>
      </g>
     </g>
    </g>
    <g id="xtick_35">
     <g id="line2d_38">
      <g>
       <use xlink:href="#m5e92c4ecce" x="158.429368" y="74.304" style="stroke: #000000; stroke-width: 0.6"/>
      </g>
     </g>
    </g>
    <g id="xtick_36">
     <g id="line2d_39">
      <g>
       <use xlink:href="#m5e92c4ecce" x="163.040927" y="74.304" style="stroke: #000000; stroke-width: 0.6"/>
      </g>
     </g>
    </g>
    <g id="xtick_37">
     <g id="line2d_40">
      <g>
       <use xlink:href="#m5e92c4ecce" x="166.312881" y="74.304" style="stroke: #000000; stroke-width: 0.6"/>
      </g>
     </g>
    </g>
    <g id="xtick_38">
     <g id="line2d_41">
      <g>
       <use xlink:href="#m5e92c4ecce" x="168.850805" y="74.304" style="stroke: #000000; stroke-width: 0.6"/>
      </g>
     </g>
    </g>
    <g id="xtick_39">
     <g id="line2d_42">
      <g>
       <use xlink:href="#m5e92c4ecce" x="170.92444" y="74.304" style="stroke: #000000; stroke-width: 0.6"/>
      </g>
     </g>
    </g>
    <g id="xtick_40">
     <g id="line2d_43">
      <g>
       <use xlink:href="#m5e92c4ecce" x="172.677674" y="74.304" style="stroke: #000000; stroke-width: 0.6"/>
      </g>
     </g>
    </g>
    <g id="xtick_41">
     <g id="line2d_44">
      <g>
       <use xlink:href="#m5e92c4ecce" x="174.196394" y="74.304" style="stroke: #000000; stroke-width: 0.6"/>
      </g>
     </g>
    </g>
    <g id="text_4">
     <!-- Runtime -->
     <g transform="translate(89.781187 102.580563) scale(0.1 -0.1)">
      <defs>
       <path id="DejaVuSans-52" d="M 2841 2188 
Q 3044 2119 3236 1894 
Q 3428 1669 3622 1275 
L 4263 0 
L 3584 0 
L 2988 1197 
Q 2756 1666 2539 1819 
Q 2322 1972 1947 1972 
L 1259 1972 
L 1259 0 
L 628 0 
L 628 4666 
L 2053 4666 
Q 2853 4666 3247 4331 
Q 3641 3997 3641 3322 
Q 3641 2881 3436 2590 
Q 3231 2300 2841 2188 
z
M 1259 4147 
L 1259 2491 
L 2053 2491 
Q 2509 2491 2742 2702 
Q 2975 2913 2975 3322 
Q 2975 3731 2742 3939 
Q 2509 4147 2053 4147 
L 1259 4147 
z
" transform="scale(0.015625)"/>
       <path id="DejaVuSans-75" d="M 544 1381 
L 544 3500 
L 1119 3500 
L 1119 1403 
Q 1119 906 1312 657 
Q 1506 409 1894 409 
Q 2359 409 2629 706 
Q 2900 1003 2900 1516 
L 2900 3500 
L 3475 3500 
L 3475 0 
L 2900 0 
L 2900 538 
Q 2691 219 2414 64 
Q 2138 -91 1772 -91 
Q 1169 -91 856 284 
Q 544 659 544 1381 
z
M 1991 3584 
L 1991 3584 
z
" transform="scale(0.015625)"/>
       <path id="DejaVuSans-6e" d="M 3513 2113 
L 3513 0 
L 2938 0 
L 2938 2094 
Q 2938 2591 2744 2837 
Q 2550 3084 2163 3084 
Q 1697 3084 1428 2787 
Q 1159 2491 1159 1978 
L 1159 0 
L 581 0 
L 581 3500 
L 1159 3500 
L 1159 2956 
Q 1366 3272 1645 3428 
Q 1925 3584 2291 3584 
Q 2894 3584 3203 3211 
Q 3513 2838 3513 2113 
z
" transform="scale(0.015625)"/>
       <path id="DejaVuSans-74" d="M 1172 4494 
L 1172 3500 
L 2356 3500 
L 2356 3053 
L 1172 3053 
L 1172 1153 
Q 1172 725 1289 603 
Q 1406 481 1766 481 
L 2356 481 
L 2356 0 
L 1766 0 
Q 1100 0 847 248 
Q 594 497 594 1153 
L 594 3053 
L 172 3053 
L 172 3500 
L 594 3500 
L 594 4494 
L 1172 4494 
z
" transform="scale(0.015625)"/>
       <path id="DejaVuSans-69" d="M 603 3500 
L 1178 3500 
L 1178 0 
L 603 0 
L 603 3500 
z
M 603 4863 
L 1178 4863 
L 1178 4134 
L 603 4134 
L 603 4863 
z
" transform="scale(0.015625)"/>
       <path id="DejaVuSans-65" d="M 3597 1894 
L 3597 1613 
L 953 1613 
Q 991 1019 1311 708 
Q 1631 397 2203 397 
Q 2534 397 2845 478 
Q 3156 559 3463 722 
L 3463 178 
Q 3153 47 2828 -22 
Q 2503 -91 2169 -91 
Q 1331 -91 842 396 
Q 353 884 353 1716 
Q 353 2575 817 3079 
Q 1281 3584 2069 3584 
Q 2775 3584 3186 3129 
Q 3597 2675 3597 1894 
z
M 3022 2063 
Q 3016 2534 2758 2815 
Q 2500 3097 2075 3097 
Q 1594 3097 1305 2825 
Q 1016 2553 972 2059 
L 3022 2063 
z
" transform="scale(0.015625)"/>
      </defs>
      <use xlink:href="#DejaVuSans-52"/>
      <use xlink:href="#DejaVuSans-75" transform="translate(64.982422 0)"/>
      <use xlink:href="#DejaVuSans-6e" transform="translate(128.361328 0)"/>
      <use xlink:href="#DejaVuSans-74" transform="translate(191.740234 0)"/>
      <use xlink:href="#DejaVuSans-69" transform="translate(230.949219 0)"/>
      <use xlink:href="#DejaVuSans-6d" transform="translate(258.732422 0)"/>
      <use xlink:href="#DejaVuSans-65" transform="translate(356.144531 0)"/>
     </g>
    </g>
   </g>
   <g id="matplotlib.axis_2">
    <g id="ytick_1">
     <g id="line2d_45">
      <path d="M 45.792 74.304 
L 175.536 74.304 
" clip-path="url(#p28e81c0916)" style="fill: none; stroke-dasharray: 0.8,1.32; stroke-dashoffset: 0; stroke: #b0b0b0; stroke-opacity: 0.25; stroke-width: 0.8"/>
     </g>
     <g id="line2d_46">
      <defs>
       <path id="mb2721581b5" d="M 0 0 
L -3.5 0 
" style="stroke: #000000; stroke-width: 0.8"/>
      </defs>
      <g>
       <use xlink:href="#mb2721581b5" x="45.792" y="74.304" style="stroke: #000000; stroke-width: 0.8"/>
      </g>
     </g>
     <g id="text_5">
      <!-- 0 -->
      <g transform="translate(32.4295 78.103219) scale(0.1 -0.1)">
       <defs>
        <path id="DejaVuSans-30" d="M 2034 4250 
Q 1547 4250 1301 3770 
Q 1056 3291 1056 2328 
Q 1056 1369 1301 889 
Q 1547 409 2034 409 
Q 2525 409 2770 889 
Q 3016 1369 3016 2328 
Q 3016 3291 2770 3770 
Q 2525 4250 2034 4250 
z
M 2034 4750 
Q 2819 4750 3233 4129 
Q 3647 3509 3647 2328 
Q 3647 1150 3233 529 
Q 2819 -91 2034 -91 
Q 1250 -91 836 529 
Q 422 1150 422 2328 
Q 422 3509 836 4129 
Q 1250 4750 2034 4750 
z
" transform="scale(0.015625)"/>
       </defs>
       <use xlink:href="#DejaVuSans-30"/>
      </g>
     </g>
    </g>
    <g id="ytick_2">
     <g id="line2d_47">
      <path d="M 45.792 52.0128 
L 175.536 52.0128 
" clip-path="url(#p28e81c0916)" style="fill: none; stroke-dasharray: 0.8,1.32; stroke-dashoffset: 0; stroke: #b0b0b0; stroke-opacity: 0.25; stroke-width: 0.8"/>
     </g>
     <g id="line2d_48">
      <g>
       <use xlink:href="#mb2721581b5" x="45.792" y="52.0128" style="stroke: #000000; stroke-width: 0.8"/>
      </g>
     </g>
     <g id="text_6">
      <!-- 40 -->
      <g transform="translate(26.067 55.812019) scale(0.1 -0.1)">
       <defs>
        <path id="DejaVuSans-34" d="M 2419 4116 
L 825 1625 
L 2419 1625 
L 2419 4116 
z
M 2253 4666 
L 3047 4666 
L 3047 1625 
L 3713 1625 
L 3713 1100 
L 3047 1100 
L 3047 0 
L 2419 0 
L 2419 1100 
L 313 1100 
L 313 1709 
L 2253 4666 
z
" transform="scale(0.015625)"/>
       </defs>
       <use xlink:href="#DejaVuSans-34"/>
       <use xlink:href="#DejaVuSans-30" transform="translate(63.623047 0)"/>
      </g>
     </g>
    </g>
    <g id="ytick_3">
     <g id="line2d_49">
      <path d="M 45.792 29.7216 
L 175.536 29.7216 
" clip-path="url(#p28e81c0916)" style="fill: none; stroke-dasharray: 0.8,1.32; stroke-dashoffset: 0; stroke: #b0b0b0; stroke-opacity: 0.25; stroke-width: 0.8"/>
     </g>
     <g id="line2d_50">
      <g>
       <use xlink:href="#mb2721581b5" x="45.792" y="29.7216" style="stroke: #000000; stroke-width: 0.8"/>
      </g>
     </g>
     <g id="text_7">
      <!-- 80 -->
      <g transform="translate(26.067 33.520819) scale(0.1 -0.1)">
       <defs>
        <path id="DejaVuSans-38" d="M 2034 2216 
Q 1584 2216 1326 1975 
Q 1069 1734 1069 1313 
Q 1069 891 1326 650 
Q 1584 409 2034 409 
Q 2484 409 2743 651 
Q 3003 894 3003 1313 
Q 3003 1734 2745 1975 
Q 2488 2216 2034 2216 
z
M 1403 2484 
Q 997 2584 770 2862 
Q 544 3141 544 3541 
Q 544 4100 942 4425 
Q 1341 4750 2034 4750 
Q 2731 4750 3128 4425 
Q 3525 4100 3525 3541 
Q 3525 3141 3298 2862 
Q 3072 2584 2669 2484 
Q 3125 2378 3379 2068 
Q 3634 1759 3634 1313 
Q 3634 634 3220 271 
Q 2806 -91 2034 -91 
Q 1263 -91 848 271 
Q 434 634 434 1313 
Q 434 1759 690 2068 
Q 947 2378 1403 2484 
z
M 1172 3481 
Q 1172 3119 1398 2916 
Q 1625 2713 2034 2713 
Q 2441 2713 2670 2916 
Q 2900 3119 2900 3481 
Q 2900 3844 2670 4047 
Q 2441 4250 2034 4250 
Q 1625 4250 1398 4047 
Q 1172 3844 1172 3481 
z
" transform="scale(0.015625)"/>
       </defs>
       <use xlink:href="#DejaVuSans-38"/>
       <use xlink:href="#DejaVuSans-30" transform="translate(63.623047 0)"/>
      </g>
     </g>
    </g>
    <g id="ytick_4">
     <g id="line2d_51">
      <path d="M 45.792 7.4304 
L 175.536 7.4304 
" clip-path="url(#p28e81c0916)" style="fill: none; stroke-dasharray: 0.8,1.32; stroke-dashoffset: 0; stroke: #b0b0b0; stroke-opacity: 0.25; stroke-width: 0.8"/>
     </g>
     <g id="line2d_52">
      <g>
       <use xlink:href="#mb2721581b5" x="45.792" y="7.4304" style="stroke: #000000; stroke-width: 0.8"/>
      </g>
     </g>
     <g id="text_8">
      <!-- 120 -->
      <g transform="translate(19.7045 11.229619) scale(0.1 -0.1)">
       <defs>
        <path id="DejaVuSans-32" d="M 1228 531 
L 3431 531 
L 3431 0 
L 469 0 
L 469 531 
Q 828 903 1448 1529 
Q 2069 2156 2228 2338 
Q 2531 2678 2651 2914 
Q 2772 3150 2772 3378 
Q 2772 3750 2511 3984 
Q 2250 4219 1831 4219 
Q 1534 4219 1204 4116 
Q 875 4013 500 3803 
L 500 4441 
Q 881 4594 1212 4672 
Q 1544 4750 1819 4750 
Q 2544 4750 2975 4387 
Q 3406 4025 3406 3419 
Q 3406 3131 3298 2873 
Q 3191 2616 2906 2266 
Q 2828 2175 2409 1742 
Q 1991 1309 1228 531 
z
" transform="scale(0.015625)"/>
       </defs>
       <use xlink:href="#DejaVuSans-31"/>
       <use xlink:href="#DejaVuSans-32" transform="translate(63.623047 0)"/>
       <use xlink:href="#DejaVuSans-30" transform="translate(127.246094 0)"/>
      </g>
     </g>
    </g>
    <g id="text_9">
     <!-- Completed -->
     <g transform="translate(13.624812 68.139075) rotate(-90) scale(0.1 -0.1)">
      <defs>
       <path id="DejaVuSans-43" d="M 4122 4306 
L 4122 3641 
Q 3803 3938 3442 4084 
Q 3081 4231 2675 4231 
Q 1875 4231 1450 3742 
Q 1025 3253 1025 2328 
Q 1025 1406 1450 917 
Q 1875 428 2675 428 
Q 3081 428 3442 575 
Q 3803 722 4122 1019 
L 4122 359 
Q 3791 134 3420 21 
Q 3050 -91 2638 -91 
Q 1578 -91 968 557 
Q 359 1206 359 2328 
Q 359 3453 968 4101 
Q 1578 4750 2638 4750 
Q 3056 4750 3426 4639 
Q 3797 4528 4122 4306 
z
" transform="scale(0.015625)"/>
       <path id="DejaVuSans-6f" d="M 1959 3097 
Q 1497 3097 1228 2736 
Q 959 2375 959 1747 
Q 959 1119 1226 758 
Q 1494 397 1959 397 
Q 2419 397 2687 759 
Q 2956 1122 2956 1747 
Q 2956 2369 2687 2733 
Q 2419 3097 1959 3097 
z
M 1959 3584 
Q 2709 3584 3137 3096 
Q 3566 2609 3566 1747 
Q 3566 888 3137 398 
Q 2709 -91 1959 -91 
Q 1206 -91 779 398 
Q 353 888 353 1747 
Q 353 2609 779 3096 
Q 1206 3584 1959 3584 
z
" transform="scale(0.015625)"/>
       <path id="DejaVuSans-70" d="M 1159 525 
L 1159 -1331 
L 581 -1331 
L 581 3500 
L 1159 3500 
L 1159 2969 
Q 1341 3281 1617 3432 
Q 1894 3584 2278 3584 
Q 2916 3584 3314 3078 
Q 3713 2572 3713 1747 
Q 3713 922 3314 415 
Q 2916 -91 2278 -91 
Q 1894 -91 1617 61 
Q 1341 213 1159 525 
z
M 3116 1747 
Q 3116 2381 2855 2742 
Q 2594 3103 2138 3103 
Q 1681 3103 1420 2742 
Q 1159 2381 1159 1747 
Q 1159 1113 1420 752 
Q 1681 391 2138 391 
Q 2594 391 2855 752 
Q 3116 1113 3116 1747 
z
" transform="scale(0.015625)"/>
       <path id="DejaVuSans-6c" d="M 603 4863 
L 1178 4863 
L 1178 0 
L 603 0 
L 603 4863 
z
" transform="scale(0.015625)"/>
       <path id="DejaVuSans-64" d="M 2906 2969 
L 2906 4863 
L 3481 4863 
L 3481 0 
L 2906 0 
L 2906 525 
Q 2725 213 2448 61 
Q 2172 -91 1784 -91 
Q 1150 -91 751 415 
Q 353 922 353 1747 
Q 353 2572 751 3078 
Q 1150 3584 1784 3584 
Q 2172 3584 2448 3432 
Q 2725 3281 2906 2969 
z
M 947 1747 
Q 947 1113 1208 752 
Q 1469 391 1925 391 
Q 2381 391 2643 752 
Q 2906 1113 2906 1747 
Q 2906 2381 2643 2742 
Q 2381 3103 1925 3103 
Q 1469 3103 1208 2742 
Q 947 2381 947 1747 
z
" transform="scale(0.015625)"/>
      </defs>
      <use xlink:href="#DejaVuSans-43"/>
      <use xlink:href="#DejaVuSans-6f" transform="translate(69.824219 0)"/>
      <use xlink:href="#DejaVuSans-6d" transform="translate(131.005859 0)"/>
      <use xlink:href="#DejaVuSans-70" transform="translate(228.417969 0)"/>
      <use xlink:href="#DejaVuSans-6c" transform="translate(291.894531 0)"/>
      <use xlink:href="#DejaVuSans-65" transform="translate(319.677734 0)"/>
      <use xlink:href="#DejaVuSans-74" transform="translate(381.201172 0)"/>
      <use xlink:href="#DejaVuSans-65" transform="translate(420.410156 0)"/>
      <use xlink:href="#DejaVuSans-64" transform="translate(481.933594 0)"/>
     </g>
    </g>
   </g>
   <g id="patch_3">
    <path d="M 45.792 74.304 
L 45.792 7.4304 
" style="fill: none; stroke: #000000; stroke-width: 0.8; stroke-linejoin: miter; stroke-linecap: square"/>
   </g>
   <g id="patch_4">
    <path d="M 175.536 74.304 
L 175.536 7.4304 
" style="fill: none; stroke: #000000; stroke-width: 0.8; stroke-linejoin: miter; stroke-linecap: square"/>
   </g>
   <g id="patch_5">
    <path d="M 45.792 74.304 
L 175.536 74.304 
" style="fill: none; stroke: #000000; stroke-width: 0.8; stroke-linejoin: miter; stroke-linecap: square"/>
   </g>
   <g id="patch_6">
    <path d="M 45.792 7.4304 
L 175.536 7.4304 
" style="fill: none; stroke: #000000; stroke-width: 0.8; stroke-linejoin: miter; stroke-linecap: square"/>
   </g>
   <g id="text_10">
    <!-- 116 complete -->
    <g style="fill: #737373" transform="translate(117.75987 59.669584) scale(0.08 -0.08)">
     <defs>
      <path id="DejaVuSans-36" d="M 2113 2584 
Q 1688 2584 1439 2293 
Q 1191 2003 1191 1497 
Q 1191 994 1439 701 
Q 1688 409 2113 409 
Q 2538 409 2786 701 
Q 3034 994 3034 1497 
Q 3034 2003 2786 2293 
Q 2538 2584 2113 2584 
z
M 3366 4563 
L 3366 3988 
Q 3128 4100 2886 4159 
Q 2644 4219 2406 4219 
Q 1781 4219 1451 3797 
Q 1122 3375 1075 2522 
Q 1259 2794 1537 2939 
Q 1816 3084 2150 3084 
Q 2853 3084 3261 2657 
Q 3669 2231 3669 1497 
Q 3669 778 3244 343 
Q 2819 -91 2113 -91 
Q 1303 -91 875 529 
Q 447 1150 447 2328 
Q 447 3434 972 4092 
Q 1497 4750 2381 4750 
Q 2619 4750 2861 4703 
Q 3103 4656 3366 4563 
z
" transform="scale(0.015625)"/>
      <path id="DejaVuSans-20" transform="scale(0.015625)"/>
      <path id="DejaVuSans-63" d="M 3122 3366 
L 3122 2828 
Q 2878 2963 2633 3030 
Q 2388 3097 2138 3097 
Q 1578 3097 1268 2742 
Q 959 2388 959 1747 
Q 959 1106 1268 751 
Q 1578 397 2138 397 
Q 2388 397 2633 464 
Q 2878 531 3122 666 
L 3122 134 
Q 2881 22 2623 -34 
Q 2366 -91 2075 -91 
Q 1284 -91 818 406 
Q 353 903 353 1747 
Q 353 2603 823 3093 
Q 1294 3584 2113 3584 
Q 2378 3584 2631 3529 
Q 2884 3475 3122 3366 
z
" transform="scale(0.015625)"/>
     </defs>
     <use xlink:href="#DejaVuSans-31"/>
     <use xlink:href="#DejaVuSans-31" transform="translate(63.623047 0)"/>
     <use xlink:href="#DejaVuSans-36" transform="translate(127.246094 0)"/>
     <use xlink:href="#DejaVuSans-20" transform="translate(190.869141 0)"/>
     <use xlink:href="#DejaVuSans-63" transform="translate(222.65625 0)"/>
     <use xlink:href="#DejaVuSans-6f" transform="translate(277.636719 0)"/>
     <use xlink:href="#DejaVuSans-6d" transform="translate(338.818359 0)"/>
     <use xlink:href="#DejaVuSans-70" transform="translate(436.230469 0)"/>
     <use xlink:href="#DejaVuSans-6c" transform="translate(499.707031 0)"/>
     <use xlink:href="#DejaVuSans-65" transform="translate(527.490234 0)"/>
     <use xlink:href="#DejaVuSans-74" transform="translate(589.013672 0)"/>
     <use xlink:href="#DejaVuSans-65" transform="translate(628.222656 0)"/>
    </g>
    <!-- 3 timed out -->
    <g style="fill: #737373" transform="translate(126.51237 68.627834) scale(0.08 -0.08)">
     <defs>
      <path id="DejaVuSans-33" d="M 2597 2516 
Q 3050 2419 3304 2112 
Q 3559 1806 3559 1356 
Q 3559 666 3084 287 
Q 2609 -91 1734 -91 
Q 1441 -91 1130 -33 
Q 819 25 488 141 
L 488 750 
Q 750 597 1062 519 
Q 1375 441 1716 441 
Q 2309 441 2620 675 
Q 2931 909 2931 1356 
Q 2931 1769 2642 2001 
Q 2353 2234 1838 2234 
L 1294 2234 
L 1294 2753 
L 1863 2753 
Q 2328 2753 2575 2939 
Q 2822 3125 2822 3475 
Q 2822 3834 2567 4026 
Q 2313 4219 1838 4219 
Q 1578 4219 1281 4162 
Q 984 4106 628 3988 
L 628 4550 
Q 988 4650 1302 4700 
Q 1616 4750 1894 4750 
Q 2613 4750 3031 4423 
Q 3450 4097 3450 3541 
Q 3450 3153 3228 2886 
Q 3006 2619 2597 2516 
z
" transform="scale(0.015625)"/>
     </defs>
     <use xlink:href="#DejaVuSans-33"/>
     <use xlink:href="#DejaVuSans-20" transform="translate(63.623047 0)"/>
     <use xlink:href="#DejaVuSans-74" transform="translate(95.410156 0)"/>
     <use xlink:href="#DejaVuSans-69" transform="translate(134.619141 0)"/>
     <use xlink:href="#DejaVuSans-6d" transform="translate(162.402344 0)"/>
     <use xlink:href="#DejaVuSans-65" transform="translate(259.814453 0)"/>
     <use xlink:href="#DejaVuSans-64" transform="translate(321.337891 0)"/>
     <use xlink:href="#DejaVuSans-20" transform="translate(384.814453 0)"/>
     <use xlink:href="#DejaVuSans-6f" transform="translate(416.601562 0)"/>
     <use xlink:href="#DejaVuSans-75" transform="translate(477.783203 0)"/>
     <use xlink:href="#DejaVuSans-74" transform="translate(541.162109 0)"/>
    </g>
   </g>
   <g id="PathCollection_1">
    <defs>
     <path id="m24a6174d02" d="M 0 1.118034 
C 0.296506 1.118034 0.580908 1.000231 0.790569 0.790569 
C 1.000231 0.580908 1.118034 0.296506 1.118034 0 
C 1.118034 -0.296506 1.000231 -0.580908 0.790569 -0.790569 
C 0.580908 -1.000231 0.296506 -1.118034 0 -1.118034 
C -0.296506 -1.118034 -0.580908 -1.000231 -0.790569 -0.790569 
C -1.000231 -0.580908 -1.118034 -0.296506 -1.118034 0 
C -1.118034 0.296506 -1.000231 0.580908 -0.790569 0.790569 
C -0.580908 1.000231 -0.296506 1.118034 0 1.118034 
z
" style="stroke: #2ca02c"/>
    </defs>
    <g clip-path="url(#p28e81c0916)">
     <use xlink:href="#m24a6174d02" x="45.792" y="74.304" style="fill: #2ca02c; stroke: #2ca02c"/>
     <use xlink:href="#m24a6174d02" x="41.925476" y="73.74672" style="fill: #2ca02c; stroke: #2ca02c"/>
     <use xlink:href="#m24a6174d02" x="41.964392" y="73.18944" style="fill: #2ca02c; stroke: #2ca02c"/>
     <use xlink:href="#m24a6174d02" x="43.00346" y="72.63216" style="fill: #2ca02c; stroke: #2ca02c"/>
     <use xlink:href="#m24a6174d02" x="43.713343" y="72.07488" style="fill: #2ca02c; stroke: #2ca02c"/>
     <use xlink:href="#m24a6174d02" x="44.062158" y="71.5176" style="fill: #2ca02c; stroke: #2ca02c"/>
     <use xlink:href="#m24a6174d02" x="44.981534" y="70.96032" style="fill: #2ca02c; stroke: #2ca02c"/>
     <use xlink:href="#m24a6174d02" x="47.559202" y="70.40304" style="fill: #2ca02c; stroke: #2ca02c"/>
     <use xlink:href="#m24a6174d02" x="48.717062" y="69.84576" style="fill: #2ca02c; stroke: #2ca02c"/>
     <use xlink:href="#m24a6174d02" x="49.393006" y="69.28848" style="fill: #2ca02c; stroke: #2ca02c"/>
     <use xlink:href="#m24a6174d02" x="49.568784" y="68.7312" style="fill: #2ca02c; stroke: #2ca02c"/>
     <use xlink:href="#m24a6174d02" x="50.887934" y="68.17392" style="fill: #2ca02c; stroke: #2ca02c"/>
     <use xlink:href="#m24a6174d02" x="51.556646" y="67.61664" style="fill: #2ca02c; stroke: #2ca02c"/>
     <use xlink:href="#m24a6174d02" x="52.190154" y="67.05936" style="fill: #2ca02c; stroke: #2ca02c"/>
     <use xlink:href="#m24a6174d02" x="52.775214" y="66.50208" style="fill: #2ca02c; stroke: #2ca02c"/>
     <use xlink:href="#m24a6174d02" x="53.257715" y="65.9448" style="fill: #2ca02c; stroke: #2ca02c"/>
     <use xlink:href="#m24a6174d02" x="54.046348" y="65.38752" style="fill: #2ca02c; stroke: #2ca02c"/>
     <use xlink:href="#m24a6174d02" x="54.106867" y="64.83024" style="fill: #2ca02c; stroke: #2ca02c"/>
     <use xlink:href="#m24a6174d02" x="54.12258" y="64.27296" style="fill: #2ca02c; stroke: #2ca02c"/>
     <use xlink:href="#m24a6174d02" x="54.125188" y="63.71568" style="fill: #2ca02c; stroke: #2ca02c"/>
     <use xlink:href="#m24a6174d02" x="54.161713" y="63.1584" style="fill: #2ca02c; stroke: #2ca02c"/>
     <use xlink:href="#m24a6174d02" x="54.175614" y="62.60112" style="fill: #2ca02c; stroke: #2ca02c"/>
     <use xlink:href="#m24a6174d02" x="54.304404" y="62.04384" style="fill: #2ca02c; stroke: #2ca02c"/>
     <use xlink:href="#m24a6174d02" x="54.410871" y="61.48656" style="fill: #2ca02c; stroke: #2ca02c"/>
     <use xlink:href="#m24a6174d02" x="54.48892" y="60.92928" style="fill: #2ca02c; stroke: #2ca02c"/>
     <use xlink:href="#m24a6174d02" x="54.664638" y="60.372" style="fill: #2ca02c; stroke: #2ca02c"/>
     <use xlink:href="#m24a6174d02" x="54.770062" y="59.81472" style="fill: #2ca02c; stroke: #2ca02c"/>
     <use xlink:href="#m24a6174d02" x="54.89871" y="59.25744" style="fill: #2ca02c; stroke: #2ca02c"/>
     <use xlink:href="#m24a6174d02" x="54.918642" y="58.70016" style="fill: #2ca02c; stroke: #2ca02c"/>
     <use xlink:href="#m24a6174d02" x="54.940623" y="58.14288" style="fill: #2ca02c; stroke: #2ca02c"/>
     <use xlink:href="#m24a6174d02" x="55.056116" y="57.5856" style="fill: #2ca02c; stroke: #2ca02c"/>
     <use xlink:href="#m24a6174d02" x="55.107907" y="57.02832" style="fill: #2ca02c; stroke: #2ca02c"/>
     <use xlink:href="#m24a6174d02" x="55.140217" y="56.47104" style="fill: #2ca02c; stroke: #2ca02c"/>
     <use xlink:href="#m24a6174d02" x="55.148619" y="55.91376" style="fill: #2ca02c; stroke: #2ca02c"/>
     <use xlink:href="#m24a6174d02" x="55.422934" y="55.35648" style="fill: #2ca02c; stroke: #2ca02c"/>
     <use xlink:href="#m24a6174d02" x="55.515015" y="54.7992" style="fill: #2ca02c; stroke: #2ca02c"/>
     <use xlink:href="#m24a6174d02" x="55.6403" y="54.24192" style="fill: #2ca02c; stroke: #2ca02c"/>
     <use xlink:href="#m24a6174d02" x="55.851836" y="53.68464" style="fill: #2ca02c; stroke: #2ca02c"/>
     <use xlink:href="#m24a6174d02" x="55.959167" y="53.12736" style="fill: #2ca02c; stroke: #2ca02c"/>
     <use xlink:href="#m24a6174d02" x="56.031901" y="52.57008" style="fill: #2ca02c; stroke: #2ca02c"/>
     <use xlink:href="#m24a6174d02" x="56.199945" y="52.0128" style="fill: #2ca02c; stroke: #2ca02c"/>
     <use xlink:href="#m24a6174d02" x="56.351751" y="51.45552" style="fill: #2ca02c; stroke: #2ca02c"/>
     <use xlink:href="#m24a6174d02" x="56.642113" y="50.89824" style="fill: #2ca02c; stroke: #2ca02c"/>
     <use xlink:href="#m24a6174d02" x="56.727849" y="50.34096" style="fill: #2ca02c; stroke: #2ca02c"/>
     <use xlink:href="#m24a6174d02" x="56.746143" y="49.78368" style="fill: #2ca02c; stroke: #2ca02c"/>
     <use xlink:href="#m24a6174d02" x="56.746334" y="49.2264" style="fill: #2ca02c; stroke: #2ca02c"/>
     <use xlink:href="#m24a6174d02" x="56.82982" y="48.66912" style="fill: #2ca02c; stroke: #2ca02c"/>
     <use xlink:href="#m24a6174d02" x="56.912558" y="48.11184" style="fill: #2ca02c; stroke: #2ca02c"/>
     <use xlink:href="#m24a6174d02" x="57.039165" y="47.55456" style="fill: #2ca02c; stroke: #2ca02c"/>
     <use xlink:href="#m24a6174d02" x="57.119434" y="46.99728" style="fill: #2ca02c; stroke: #2ca02c"/>
     <use xlink:href="#m24a6174d02" x="57.253324" y="46.44" style="fill: #2ca02c; stroke: #2ca02c"/>
     <use xlink:href="#m24a6174d02" x="57.258531" y="45.88272" style="fill: #2ca02c; stroke: #2ca02c"/>
     <use xlink:href="#m24a6174d02" x="57.277533" y="45.32544" style="fill: #2ca02c; stroke: #2ca02c"/>
     <use xlink:href="#m24a6174d02" x="57.628149" y="44.76816" style="fill: #2ca02c; stroke: #2ca02c"/>
     <use xlink:href="#m24a6174d02" x="57.634633" y="44.21088" style="fill: #2ca02c; stroke: #2ca02c"/>
     <use xlink:href="#m24a6174d02" x="57.684054" y="43.6536" style="fill: #2ca02c; stroke: #2ca02c"/>
     <use xlink:href="#m24a6174d02" x="57.858016" y="43.09632" style="fill: #2ca02c; stroke: #2ca02c"/>
     <use xlink:href="#m24a6174d02" x="58.388946" y="42.53904" style="fill: #2ca02c; stroke: #2ca02c"/>
     <use xlink:href="#m24a6174d02" x="58.477718" y="41.98176" style="fill: #2ca02c; stroke: #2ca02c"/>
     <use xlink:href="#m24a6174d02" x="58.488645" y="41.42448" style="fill: #2ca02c; stroke: #2ca02c"/>
     <use xlink:href="#m24a6174d02" x="58.683392" y="40.8672" style="fill: #2ca02c; stroke: #2ca02c"/>
     <use xlink:href="#m24a6174d02" x="58.895106" y="40.30992" style="fill: #2ca02c; stroke: #2ca02c"/>
     <use xlink:href="#m24a6174d02" x="59.009446" y="39.75264" style="fill: #2ca02c; stroke: #2ca02c"/>
     <use xlink:href="#m24a6174d02" x="59.833809" y="39.19536" style="fill: #2ca02c; stroke: #2ca02c"/>
     <use xlink:href="#m24a6174d02" x="60.867052" y="38.63808" style="fill: #2ca02c; stroke: #2ca02c"/>
     <use xlink:href="#m24a6174d02" x="61.68327" y="38.0808" style="fill: #2ca02c; stroke: #2ca02c"/>
     <use xlink:href="#m24a6174d02" x="65.362363" y="37.52352" style="fill: #2ca02c; stroke: #2ca02c"/>
     <use xlink:href="#m24a6174d02" x="69.47705" y="36.96624" style="fill: #2ca02c; stroke: #2ca02c"/>
     <use xlink:href="#m24a6174d02" x="69.479463" y="36.40896" style="fill: #2ca02c; stroke: #2ca02c"/>
     <use xlink:href="#m24a6174d02" x="69.935442" y="35.85168" style="fill: #2ca02c; stroke: #2ca02c"/>
     <use xlink:href="#m24a6174d02" x="71.052096" y="35.2944" style="fill: #2ca02c; stroke: #2ca02c"/>
     <use xlink:href="#m24a6174d02" x="71.536453" y="34.73712" style="fill: #2ca02c; stroke: #2ca02c"/>
     <use xlink:href="#m24a6174d02" x="71.599438" y="34.17984" style="fill: #2ca02c; stroke: #2ca02c"/>
     <use xlink:href="#m24a6174d02" x="71.604117" y="33.62256" style="fill: #2ca02c; stroke: #2ca02c"/>
     <use xlink:href="#m24a6174d02" x="72.403519" y="33.06528" style="fill: #2ca02c; stroke: #2ca02c"/>
     <use xlink:href="#m24a6174d02" x="72.504181" y="32.508" style="fill: #2ca02c; stroke: #2ca02c"/>
     <use xlink:href="#m24a6174d02" x="75.835308" y="31.95072" style="fill: #2ca02c; stroke: #2ca02c"/>
     <use xlink:href="#m24a6174d02" x="76.508714" y="31.39344" style="fill: #2ca02c; stroke: #2ca02c"/>
     <use xlink:href="#m24a6174d02" x="77.766569" y="30.83616" style="fill: #2ca02c; stroke: #2ca02c"/>
     <use xlink:href="#m24a6174d02" x="82.894895" y="30.27888" style="fill: #2ca02c; stroke: #2ca02c"/>
     <use xlink:href="#m24a6174d02" x="83.262127" y="29.7216" style="fill: #2ca02c; stroke: #2ca02c"/>
     <use xlink:href="#m24a6174d02" x="85.613507" y="29.16432" style="fill: #2ca02c; stroke: #2ca02c"/>
     <use xlink:href="#m24a6174d02" x="86.905982" y="28.60704" style="fill: #2ca02c; stroke: #2ca02c"/>
     <use xlink:href="#m24a6174d02" x="88.297762" y="28.04976" style="fill: #2ca02c; stroke: #2ca02c"/>
     <use xlink:href="#m24a6174d02" x="90.920573" y="27.49248" style="fill: #2ca02c; stroke: #2ca02c"/>
     <use xlink:href="#m24a6174d02" x="91.325108" y="26.9352" style="fill: #2ca02c; stroke: #2ca02c"/>
     <use xlink:href="#m24a6174d02" x="97.482711" y="26.37792" style="fill: #2ca02c; stroke: #2ca02c"/>
     <use xlink:href="#m24a6174d02" x="99.098747" y="25.82064" style="fill: #2ca02c; stroke: #2ca02c"/>
     <use xlink:href="#m24a6174d02" x="99.43565" y="25.26336" style="fill: #2ca02c; stroke: #2ca02c"/>
     <use xlink:href="#m24a6174d02" x="99.540977" y="24.70608" style="fill: #2ca02c; stroke: #2ca02c"/>
     <use xlink:href="#m24a6174d02" x="99.661357" y="24.1488" style="fill: #2ca02c; stroke: #2ca02c"/>
     <use xlink:href="#m24a6174d02" x="99.831374" y="23.59152" style="fill: #2ca02c; stroke: #2ca02c"/>
     <use xlink:href="#m24a6174d02" x="99.86457" y="23.03424" style="fill: #2ca02c; stroke: #2ca02c"/>
     <use xlink:href="#m24a6174d02" x="99.892035" y="22.47696" style="fill: #2ca02c; stroke: #2ca02c"/>
     <use xlink:href="#m24a6174d02" x="99.980918" y="21.91968" style="fill: #2ca02c; stroke: #2ca02c"/>
     <use xlink:href="#m24a6174d02" x="100.150061" y="21.3624" style="fill: #2ca02c; stroke: #2ca02c"/>
     <use xlink:href="#m24a6174d02" x="100.31144" y="20.80512" style="fill: #2ca02c; stroke: #2ca02c"/>
     <use xlink:href="#m24a6174d02" x="100.609701" y="20.24784" style="fill: #2ca02c; stroke: #2ca02c"/>
     <use xlink:href="#m24a6174d02" x="100.799142" y="19.69056" style="fill: #2ca02c; stroke: #2ca02c"/>
     <use xlink:href="#m24a6174d02" x="101.100408" y="19.13328" style="fill: #2ca02c; stroke: #2ca02c"/>
     <use xlink:href="#m24a6174d02" x="101.295112" y="18.576" style="fill: #2ca02c; stroke: #2ca02c"/>
     <use xlink:href="#m24a6174d02" x="103.290248" y="18.01872" style="fill: #2ca02c; stroke: #2ca02c"/>
     <use xlink:href="#m24a6174d02" x="107.417915" y="17.46144" style="fill: #2ca02c; stroke: #2ca02c"/>
     <use xlink:href="#m24a6174d02" x="111.27704" y="16.90416" style="fill: #2ca02c; stroke: #2ca02c"/>
     <use xlink:href="#m24a6174d02" x="111.397676" y="16.34688" style="fill: #2ca02c; stroke: #2ca02c"/>
     <use xlink:href="#m24a6174d02" x="115.829091" y="15.7896" style="fill: #2ca02c; stroke: #2ca02c"/>
     <use xlink:href="#m24a6174d02" x="120.953487" y="15.23232" style="fill: #2ca02c; stroke: #2ca02c"/>
     <use xlink:href="#m24a6174d02" x="121.04696" y="14.67504" style="fill: #2ca02c; stroke: #2ca02c"/>
     <use xlink:href="#m24a6174d02" x="121.97717" y="14.11776" style="fill: #2ca02c; stroke: #2ca02c"/>
     <use xlink:href="#m24a6174d02" x="123.578981" y="13.56048" style="fill: #2ca02c; stroke: #2ca02c"/>
     <use xlink:href="#m24a6174d02" x="124.603832" y="13.0032" style="fill: #2ca02c; stroke: #2ca02c"/>
     <use xlink:href="#m24a6174d02" x="128.595747" y="12.44592" style="fill: #2ca02c; stroke: #2ca02c"/>
     <use xlink:href="#m24a6174d02" x="130.576349" y="11.88864" style="fill: #2ca02c; stroke: #2ca02c"/>
     <use xlink:href="#m24a6174d02" x="133.261688" y="11.33136" style="fill: #2ca02c; stroke: #2ca02c"/>
     <use xlink:href="#m24a6174d02" x="135.160925" y="10.77408" style="fill: #2ca02c; stroke: #2ca02c"/>
     <use xlink:href="#m24a6174d02" x="149.76987" y="10.2168" style="fill: #2ca02c; stroke: #2ca02c"/>
     <use xlink:href="#m24a6174d02" x="155.268434" y="9.65952" style="fill: #2ca02c; stroke: #2ca02c"/>
    </g>
   </g>
  </g>
 </g>
 <defs>
  <clipPath id="p28e81c0916">
   <rect x="45.792" y="7.4304" width="129.744" height="66.8736"/>
  </clipPath>
 </defs>
</svg>
